/* XPM */
static char * elle_logo1_xpm[] = {
"34 32 181 2",
"  	c None",
". 	c #FF9D74",
"+ 	c #FFA781",
"@ 	c #FFA684",
"# 	c #FFCBB3",
"$ 	c #FF5E31",
"% 	c #FF663A",
"& 	c #FF7747",
"* 	c #FF8152",
"= 	c #FF895A",
"- 	c #FF9462",
"; 	c #FF996F",
"> 	c #FFA37B",
", 	c #FFA982",
"' 	c #FFB28D",
") 	c #FFC0A1",
"! 	c #FF5227",
"~ 	c #FF5D2E",
"{ 	c #FF6533",
"] 	c #FF673C",
"^ 	c #FF8E6C",
"/ 	c #FFB39C",
"( 	c #FFD2C4",
"_ 	c #FFDED4",
": 	c #FFE0D6",
"< 	c #FF9470",
"[ 	c #FFA279",
"} 	c #FFAB83",
"| 	c #FFB28E",
"1 	c #FFC7B0",
"2 	c #FF411B",
"3 	c #FF4A22",
"4 	c #FF5027",
"5 	c #FF6B45",
"6 	c #FFB19E",
"7 	c #FFEAE5",
"8 	c #FFFFFF",
"9 	c #FFF0EE",
"0 	c #FFAC91",
"a 	c #FF9362",
"b 	c #FF9A71",
"c 	c #FFA37A",
"d 	c #FFAC85",
"e 	c #FFBE9F",
"f 	c #FF3211",
"g 	c #FF3A15",
"h 	c #FF5938",
"i 	c #FFB3A4",
"j 	c #FFB5A6",
"k 	c #FFB7A1",
"l 	c #FFDBCD",
"m 	c #FFD9CA",
"n 	c #FFD5C7",
"o 	c #FFDAD0",
"p 	c #FF2C0E",
"q 	c #FF3311",
"r 	c #FF3613",
"s 	c #FF816B",
"t 	c #FFECE9",
"u 	c #FF270A",
"v 	c #FF2A0C",
"w 	c #FF3C1F",
"x 	c #FFBCB2",
"y 	c #FAFBFE",
"z 	c #FEFEFE",
"A 	c #FDFDFE",
"B 	c #FFDED2",
"C 	c #FFB192",
"D 	c #FF250C",
"E 	c #FF3F25",
"F 	c #FFD3CC",
"G 	c #FCFDFE",
"H 	c #FFD2C1",
"I 	c #FFA27A",
"J 	c #FFE1DF",
"K 	c #FFF3F2",
"L 	c #FFA98B",
"M 	c #FF966B",
"N 	c #1225ED",
"O 	c #FFFDFD",
"P 	c #FF9770",
"Q 	c #FF8959",
"R 	c #3949F0",
"S 	c #FFE2DB",
"T 	c #FF7F51",
"U 	c #FF7D4F",
"V 	c #FF5144",
"W 	c #FF7B4B",
"X 	c #FF6F42",
"Y 	c #FF524A",
"Z 	c #FF2318",
"` 	c #FFF3F1",
" .	c #FF6A41",
"..	c #FF7043",
"+.	c #FF1003",
"@.	c #FF0A01",
"#.	c #FF0C02",
"$.	c #FFD7D1",
"%.	c #FFA18A",
"&.	c #FF6432",
"*.	c #FF5F33",
"=.	c #FF0803",
"-.	c #FF0700",
";.	c #FF0801",
">.	c #FFADAA",
",.	c #FFEBE7",
"'.	c #FF592E",
").	c #FF5E2F",
"!.	c #FF0500",
"~.	c #FF0600",
"{.	c #FA8D89",
"].	c #F2F3FB",
"^.	c #F7F4F8",
"/.	c #FF5532",
"(.	c #FF5127",
"_.	c #FF4F25",
":.	c #FF504E",
"<.	c #FF0300",
"[.	c #FF9A94",
"}.	c #FFD9D9",
"|.	c #F9E5E7",
"1.	c #F5F5FC",
"2.	c #FCFBFD",
"3.	c #FF8068",
"4.	c #FF451E",
"5.	c #FF4720",
"6.	c #FF8D8C",
"7.	c #FFC1B7",
"8.	c #FFFEFD",
"9.	c #FFFEFE",
"0.	c #FF7F6B",
"a.	c #FF3B16",
"b.	c #FF401A",
"c.	c #FF8C8C",
"d.	c #FF0200",
"e.	c #FFD6CB",
"f.	c #FF7D67",
"g.	c #FFF5F4",
"h.	c #FF2D0E",
"i.	c #FF3614",
"j.	c #FF9C96",
"k.	c #FFF2F1",
"l.	c #FF533F",
"m.	c #FF492F",
"n.	c #FF260A",
"o.	c #FF2E0E",
"p.	c #FF0504",
"q.	c #FF322F",
"r.	c #FFF6F4",
"s.	c #FF4C3A",
"t.	c #FF1C05",
"u.	c #FF1F07",
"v.	c #FF2308",
"w.	c #FF3434",
"x.	c #FF0201",
"y.	c #FF7D75",
"z.	c #FFFCFC",
"A.	c #FFF1F0",
"B.	c #FF4B3C",
"C.	c #FF1503",
"D.	c #FF1904",
"E.	c #FF2309",
"F.	c #FF0402",
"G.	c #FF625C",
"H.	c #FFEFED",
"I.	c #FFF2F0",
"J.	c #FF4B3E",
"K.	c #FF1002",
"L.	c #FF1403",
"M.	c #FF3D24",
"N.	c #FF0302",
"O.	c #FF0100",
"P.	c #FF130F",
"Q.	c #FF5351",
"R.	c #FFB0A8",
"S.	c #FFC7BF",
"T.	c #FFEAE7",
"U.	c #FF1504",
"V.	c #FF0E02",
"W.	c #FF0401",
"X.	c #FF574E",
"                                                                    ",
"                                                                    ",
"                                                                    ",
"                                                                    ",
"                                            . +     @ #             ",
"                                  $ % & * = - ; > , ' )             ",
"                              ! ~ { ] ^ / ( _ : < [ } | 1           ",
"                          2 3 4 5 6 7 8 8 8 9 0 a b c d e           ",
"                      f g 2 h i 8 8 8 8 8 8 j k l m n o 8           ",
"                    p q r s t 8 8 8 8 8 8 8 8 8 8 8 8 8 8 8         ",
"                  u v w x 8 8 8 8 8 8 8 8 y z 8 A z 8 8 8 B C       ",
"                  D E F 8 8 8 8 8 8 8 z G 8 8 8 8 A 8 8 8 H I       ",
"                8 J K 8 8 8 8 8 8 8 8 8 8 8 8 8 8 8 8 8 8 L M       ",
"                8 8 8 N N N N 8 N 8 8 N 8 8 8 8 8 8 8 8 O P Q       ",
"              8 8 y A N 8 8 8 8 N 8 8 N 8 8 8 R 8 8 8 8 S T U       ",
"            V 8 8 8 8 N 8 8 8 8 N 8 8 N 8 8 N N N 8 8 8 / W X       ",
"          Y Z K 8 8 N N N N 8 8 N 8 8 N 8 8 N 8 N 8 8 `  ...        ",
"        +.@.#.$.8 8 N 8 8 8 8 8 N 8 8 N 8 N N N N 8 8 %.&.*.        ",
"        =.-.;.>.8 8 N 8 8 8 8 8 N 8 8 N 8 N 8 8 8 z ,.'.).          ",
"      !.~.~.-.{.].N N N N N 8 8 N 8 8 N 8 N N N 8 ^./.(._.          ",
"    ~.:.<.[.}.|.1.8 8 8 8 8 8 8 8 8 8 8 8 8 8 8 2.3.4.5.            ",
"      6.<.7.8 8 8 8 8 8 8 8 8 8 8 8 8 8 8 8.8 9.0.a.b.              ",
"      c.d.e.8 8 8 8 8 8 8 8 8 8 8 8 8 8 K f.g.h.f i.                ",
"      c.d.j.8 8 8 8 8 8 8 8 8 8 8 8 8 k.l.m.n.v o.                  ",
"        p.q.r.8 8 8 8 8 8 8 8 8 8 8 9 s.t.u.v.u                     ",
"        w.x.y.z.8 8 8 8 8 8 8 8 8 A.B.C.D.t.E.                      ",
"          p.F.G.H.8 8 8 8 8 8 8 I.J.K.L.L.D.M.                      ",
"            N.O.P.Q.R.S.T.8 8 8 U.V.K.                              ",
"              O.d.d.d.W.X.8                                         ",
"                                                                    ",
"                                                                    ",
"                                                                    "};
