/* XPM */
static char *getinfounodes[]={
"16 16 4 1",
"# c None",
". c None",
"a c #000000",
"b c #008000",
"...#...........#",
".######a#.....#.",
"##b####a#..##b#.",
"#bbb##bab..#bbb.",
".#b#..aaa..##b#.",
"..#..a#a.a#.....",
"..#.a.#.##a.....",
".#ba...b#..a#b#.",
"aaaaa.bbb.aaaaa.",
".#ba.##b...a#b#.",
"....a#....a.....",
"....#a.a.a......",
".#b#..aaa...#b#.",
".bbb..bab...bbb.",
".#b#..#a#...#b#.",
"#......a........"};
