/* XPM */
static char *getinfobnode[]={
"16 16 5 1",
"# c None",
". c None",
"b c #000000",
"c c #0000ff",
"a c #ffffff",
"...#...........a",
".######b......a.",
"###.###b.....a..",
"#.#.###b....a...",
"..#...bbb..a....",
"..#..b#..ba.....",
"..#.b.#..ab.....",
"...b...ca..b....",
"bbbb..ccc..bbbb.",
"...b..ac...b....",
"....ba....b.....",
"....ab...b......",
"...a..bbb.......",
"..a....b........",
".a.....b........",
"a......b........"};
