/* XPM */
static char *labelall[]={
"18 18 5 1",
"a c None",
". c None",
"# c #000000",
"c c #ff0000",
"b c #ffffff",
"..#a###.........b.",
".##aaa#.........b.",
"..#aa#..........b.",
"..#a.#.........b..",
"..#.###........b..",
".aaaaaaa.......b..",
"aaaa..aa......b.##",
"aaa....a......b...",
"aaaaaaaaa.....b..#",
"..............b.##",
".............b....",
"bbb..........b....",
"...bbbbbb..ccc....",
".........bbcccb...",
".......#...ccc.bbb",
"......##....b.....",
".......#...b......",
".......#...b......"};
