/* XPM */
static char *labelnodes[]={
"16 16 4 1",
". c None",
"a c #000000",
"b c #0000ff",
"# c #ffffff",
"...............#",
"..a...a.......#.",
".aa..aa......#..",
"a.a.a.a.....#...",
"..a...a....#....",
"..a...a...#.....",
"..a...a..#......",
".......b#.......",
"......bbb.......",
"......#b........",
".....#..........",
"....#...........",
"...#............",
"..#.............",
".#..............",
"#..............."};
