/* XPM */
static char *labelflynns[]={
"16 16 4 1",
". c None",
"b c #000000",
"# c #ff0000",
"a c #ffffff",
"...###aaaa###...",
"....#......#....",
"...a........a...",
"...a..b...b..a..",
"..a..bb..bb..a.#",
"a#a.b.b.b.b...##",
"###...b...b....#",
"a#....b...b....a",
"a.....b...b....a",
"a.....b...b...a.",
".a....b...b...a.",
"..a...........a.",
"..a..........a..",
"...a.........#..",
"....#.......###.",
"...###aaaaaaa#.a"};
