/* XPM */
static char *saveselected[]={
"18 18 72 2",
".a c None",
"Qt c None",
".b c #000000",
".d c #1c1c1c",
".e c #404040",
".9 c #424242",
"#f c #535353",
".# c #545454",
"#a c #585858",
".8 c #5b5b5b",
".1 c #5f5f5f",
".0 c #606060",
".Z c #626262",
".Y c #646464",
".T c #666666",
".S c #676767",
".Q c #696969",
".r c #69a5a5",
".X c #6b6b6b",
".H c #6d6d6d",
".W c #6e6e6e",
".D c #707070",
".V c #727272",
".t c #737373",
".U c #757575",
".o c #777777",
".R c #797979",
"#d c #7b7b7b",
".I c #7c7c7c",
"#c c #7d7d7d",
".E c #808080",
".u c #838383",
"## c #858585",
".f c #878787",
".7 c #8b8b8b",
".6 c #8e8e8e",
"#e c #a7a7a7",
".q c #abbbb6",
"#b c #b2b2b2",
"#. c #bcbcbc",
".c c #c0c000",
".5 c #c7c7c7",
".4 c #d1d1d1",
".3 c #dbdbdb",
".2 c #e6e6e6",
".P c #f4e5d8",
".G c #f5e7db",
".O c #f5e8dc",
".C c #f6e8dd",
".s c #f6eae0",
".B c #f7ebe1",
".n c #f7ece2",
".N c #f7ede4",
".A c #f8eee5",
".m c #f8eee6",
".M c #f9f0e8",
".z c #f9f0e9",
".l c #f9f1ea",
".L c #faf2ec",
".y c #faf3ed",
".k c #faf4ee",
".K c #fbf5f0",
".x c #fbf6f1",
".j c #fbf6f2",
".J c #fcf8f4",
".w c #fcf8f5",
".i c #fcf9f6",
".F c #fcf9f7",
".v c #fdfbf9",
".h c #fdfcfa",
".p c #fefdfc",
".g c #ffffff",
"Qt.#.a.#.a.b.a.a.a.a.a.a.a.a.a.aQtQt",
"Qt.#.#.#.a.b.a.a.a.a.a.a.a.a.a.aQtQt",
".b.b.b.b.b.b.b.b.b.b.b.b.b.b.b.b.b.b",
".c.c.#.c.c.b.c.c.c.c.c.c.c.c.c.c.c.c",
".c.#.#.c.c.d.d.e.e.e.e.e.e.e.e.d.d.c",
".c.c.#.c.d.f.e.g.h.i.j.k.l.m.n.e.o.d",
".c.c.#.c.d.f.e.p.q.r.r.r.r.q.s.e.t.d",
".c.c.#.c.d.u.e.v.w.x.y.z.A.B.C.e.D.d",
".c.c.c.c.d.E.e.F.q.r.r.r.r.q.G.e.H.d",
".b.b.b.b.d.I.e.J.K.L.M.N.s.O.P.e.Q.d",
".#.#.#.c.d.R.o.e.e.e.e.e.e.e.e.S.T.d",
".c.c.#.c.d.U.t.V.D.W.H.X.Q.S.T.Y.Z.d",
".c.#.c.c.d.V.D.W.e.e.e.e.e.e.e.0.1.d",
".#.c.c.c.d.W.H.e.2.3.4.5.e.6.7.e.8.d",
".#.#.#.c.d.X.Q.e.3.9.9#..e##.u.e#a.d",
".b.b.b.b.d.S.T.e.4.9.T#b.e#c#d.e.#.d",
".#.#.#.a.d.Y.Z.e.5#.#b#e.e.U.t.e#f.d",
"QtQt.#Qt.a.d.d.d.e.e.e.e.d.d.d.d.d.a"};
