/* XPM */
static char * save_xpm[] = {
"18 18 70 1",
" 	c None",
".	c #1C1C1C",
"+	c #404040",
"@	c #878787",
"#	c #FFFFFF",
"$	c #FDFCFA",
"%	c #FCF9F6",
"&	c #FBF6F2",
"*	c #FAF4EE",
"=	c #F9F1EA",
"-	c #F8EEE6",
";	c #F7ECE2",
">	c #777777",
",	c #737373",
"'	c #707070",
")	c #FEFDFC",
"!	c #ABBBB6",
"~	c #69A5A5",
"{	c #F6EAE0",
"]	c #6D6D6D",
"^	c #838383",
"/	c #FDFBF9",
"(	c #FCF8F5",
"_	c #FBF6F1",
":	c #FAF3ED",
"<	c #F9F0E9",
"[	c #F8EEE5",
"}	c #F7EBE1",
"|	c #F6E8DD",
"1	c #696969",
"2	c #808080",
"3	c #FCF9F7",
"4	c #F5E7DB",
"5	c #666666",
"6	c #7C7C7C",
"7	c #FCF8F4",
"8	c #FBF5F0",
"9	c #FAF2EC",
"0	c #F9F0E8",
"a	c #F7EDE4",
"b	c #F5E8DC",
"c	c #F4E5D8",
"d	c #626262",
"e	c #797979",
"f	c #676767",
"g	c #5F5F5F",
"h	c #757575",
"i	c #727272",
"j	c #6E6E6E",
"k	c #6B6B6B",
"l	c #646464",
"m	c #5B5B5B",
"n	c #606060",
"o	c #585858",
"p	c #E6E6E6",
"q	c #DBDBDB",
"r	c #D1D1D1",
"s	c #C7C7C7",
"t	c #8E8E8E",
"u	c #8B8B8B",
"v	c #545454",
"w	c #424242",
"x	c #BCBCBC",
"y	c #858585",
"z	c #535353",
"A	c #B2B2B2",
"B	c #7D7D7D",
"C	c #7B7B7B",
"D	c #303030",
"E	c #A7A7A7",
"   ..++++++++..   ",
"  +@+#$%&*=-;+>.  ",
" ..++++++++..+,.  ",
".@+#$%&*=-;+>.'.  ",
".@+)!~~~~!{+,.].  ",
".^+/(_:<[}|+'.1.  ",
".2+3!~~~~!4+].5.  ",
".6+7890a{bc+1.d.  ",
".e>++++++++f5.g.  ",
".h,i'j]k1f5ld.m.  ",
".i'j+++++++ng.o.  ",
".j]+pqrs+tu+m.v.  ",
".k1+qwwx+y^+o.z.  ",
".f5+rw5A+BC+v.D   ",
".ld+sxAE+h,+z.    ",
" ...++++.....     ",
"                  ",
"                  "};
