/* XPM */
static char * stop_xpm[] = {
"16 16 134 2",
"  	c None",
". 	c #FF9C8A",
"+ 	c #FF9A88",
"@ 	c #FD9B89",
"# 	c #FD907F",
"$ 	c #E9342E",
"% 	c #CE1719",
"& 	c #CF1A14",
"* 	c #D82513",
"= 	c #DB2D13",
"- 	c #E43B16",
"; 	c #F6643F",
"> 	c #FC8B7B",
", 	c #DE2823",
"' 	c #C30108",
") 	c #C50403",
"! 	c #D00F00",
"~ 	c #D71A00",
"{ 	c #DA2200",
"] 	c #E02700",
"^ 	c #ED2C01",
"/ 	c #FC542C",
"( 	c #FD9280",
"_ 	c #E52E29",
": 	c #C1050B",
"< 	c #BF0203",
"[ 	c #CD0F00",
"} 	c #D41A00",
"| 	c #D92500",
"1 	c #E02800",
"2 	c #E62500",
"3 	c #E92600",
"4 	c #F42C01",
"5 	c #E25937",
"6 	c #FF9E8D",
"7 	c #EA352D",
"8 	c #CC1419",
"9 	c #CB2F31",
"0 	c #D5382E",
"a 	c #DE442E",
"b 	c #E34524",
"c 	c #E44E2E",
"d 	c #EA4626",
"e 	c #EC310D",
"f 	c #F34E2E",
"g 	c #F74725",
"h 	c #EF3512",
"i 	c #812428",
"j 	c #D82323",
"k 	c #E8877A",
"l 	c #EC9C89",
"m 	c #EEAE9E",
"n 	c #F5D0C7",
"o 	c #F9C7BE",
"p 	c #F19A89",
"q 	c #F8BBB1",
"r 	c #FE6C52",
"s 	c #FADBD2",
"t 	c #FCC4B7",
"u 	c #F2543D",
"v 	c #872327",
"w 	c #DC3226",
"x 	c #F9C8BF",
"y 	c #E56142",
"z 	c #E2502E",
"A 	c #F09A89",
"B 	c #F5C1B7",
"C 	c #F79B89",
"D 	c #FE7A68",
"E 	c #FCBEB0",
"F 	c #F26551",
"G 	c #E53513",
"H 	c #E26242",
"I 	c #FAC8BF",
"J 	c #E85D3F",
"K 	c #F39A89",
"L 	c #F6C1B7",
"M 	c #F62800",
"N 	c #F99B89",
"O 	c #FE9781",
"P 	c #FBEDEA",
"Q 	c #FEB7AA",
"R 	c #F2604B",
"S 	c #E3451F",
"T 	c #EE9C89",
"U 	c #F8C2B7",
"V 	c #EC5C41",
"W 	c #FBA898",
"X 	c #FBBCB1",
"Y 	c #FE9B88",
"Z 	c #FCC8BE",
"` 	c #FF6F53",
" .	c #F25B47",
"..	c #E7421D",
"+.	c #E74E2E",
"@.	c #EA4425",
"#.	c #EA2F0B",
"$.	c #F73D19",
"%.	c #F83C1A",
"&.	c #FE614F",
"*.	c #FF7158",
"=.	c #FF6F56",
"-.	c #FF8067",
";.	c #FF725A",
">.	c #EB4639",
",.	c #F77456",
"'.	c #F13109",
").	c #EC2600",
"!.	c #F22801",
"~.	c #FB2E0A",
"{.	c #FF3A24",
"].	c #FF5239",
"^.	c #FF6349",
"/.	c #FF6D51",
"(.	c #FF7058",
"_.	c #EE473A",
":.	c #8B2225",
"<.	c #FD5F3A",
"[.	c #F73108",
"}.	c #F82902",
"|.	c #FF391C",
"1.	c #FF4E36",
"2.	c #FF5F45",
"3.	c #FF6C51",
"4.	c #FF735A",
"5.	c #EE4A3E",
"6.	c #962A2B",
"7.	c #E25A39",
"8.	c #EF3011",
"9.	c #F23C24",
"0.	c #F24A35",
"a.	c #F25842",
"b.	c #F25F4C",
"c.	c #8B2326",
"                                ",
"          . + + + + @           ",
"        # $ % & * = - ;         ",
"      > , ' ) ! ~ { ] ^ /       ",
"    ( _ : < [ } | 1 2 3 4 5     ",
"  6 7 8 9 0 a b c d e f g h i   ",
"  + j k l m n o p q r s t u v   ",
"  + w x y z A B 3 C D E E F v   ",
"  + G H I J K L M N O P Q R v   ",
"  + S T U V N W N X Y Z `  .v   ",
"  @ ..+.@.#.$.%.&.*.=.-.;.>.i   ",
"    ,.'.).!.~.{.].^./.(._.:.    ",
"      <.[.}.|.1.2.3.4.5.6.      ",
"        7.8.9.0.a.b.>.c.        ",
"          i v v v v i           ",
"                                "};
