/* XPM */
static char *unmarkrow[]={
"16 16 3 1",
". c None",
"a c #000000",
"# c #a0a0a0",
".#.#.a..........",
".#.#.a..........",
".###.a..........",
"aaaaaaaaaaaaaaaa",
"..#..a..........",
".##..a..........",
"..#..a..........",
"..#..a..........",
"aaaaaaaaaaaaaaaa",
".##..a..........",
"..#..a..........",
".#...a..........",
".##..a..........",
"aaaaaaaaaaaaaaaa",
".###.a..........",
"...#.a.........."};
