/* XPM */
static char * vmagp_xpm[] = {
"16 16 145 2",
"  	c None",
". 	c #71A0D1",
"+ 	c #7FACD8",
"@ 	c #79A5D0",
"# 	c #719FC8",
"$ 	c #6293BE",
"% 	c #90BBE5",
"& 	c #B1D5F2",
"* 	c #E4F7FF",
"= 	c #F6FDFF",
"- 	c #F7FFFF",
"; 	c #ECF8FF",
"> 	c #A4CAE2",
", 	c #346386",
"' 	c #8FBAE4",
") 	c #DCF4FF",
"! 	c #FBFFFF",
"~ 	c #FBFCFF",
"{ 	c #F4FAFF",
"] 	c #EBF7FF",
"^ 	c #E7F4FF",
"/ 	c #E9FAFF",
"( 	c #BAE3FD",
"_ 	c #13446B",
": 	c #719FD0",
"< 	c #B7D7F2",
"[ 	c #F7FEFF",
"} 	c #F7FCFF",
"| 	c #F1F9FF",
"1 	c #EBF6FF",
"2 	c #E4F3FF",
"3 	c #DDEFFE",
"4 	c #CAE5FD",
"5 	c #C3E7FF",
"6 	c #528AB6",
"7 	c #85AFD9",
"8 	c #EFFCFF",
"9 	c #F7FBFF",
"0 	c #EEF7FF",
"a 	c #EAF6FE",
"b 	c #E6F3FE",
"c 	c #DFF0FE",
"d 	c #CDE5FD",
"e 	c #B4D9FC",
"f 	c #B8DBFF",
"g 	c #A8D4FE",
"h 	c #003258",
"i 	c #77A5D0",
"j 	c #E5F6FF",
"k 	c #EAF5FF",
"l 	c #E6F3FF",
"m 	c #E2F1FE",
"n 	c #D4E9FE",
"o 	c #BFDDFC",
"p 	c #B0D3FB",
"q 	c #ABD0FA",
"r 	c #AFD2FD",
"s 	c #97C3F4",
"t 	c #002F52",
"u 	c #6AA0D0",
"v 	c #C5E8FF",
"w 	c #C3E1FD",
"x 	c #C4E1FE",
"y 	c #C1DDFC",
"z 	c #AFD2FB",
"A 	c #A8CCFA",
"B 	c #A5C8F9",
"C 	c #A1C3F8",
"D 	c #A3C2FA",
"E 	c #91BBF9",
"F 	c #003157",
"G 	c #142F46",
"H 	c #8FC0ED",
"I 	c #BCDEFF",
"J 	c #AED2FC",
"K 	c #ABCEFA",
"L 	c #A6C8F9",
"M 	c #9FC0F8",
"N 	c #98B9F7",
"O 	c #91B1F5",
"P 	c #96B4FF",
"Q 	c #2F67A1",
"R 	c #000C16",
"S 	c #4B7EAC",
"T 	c #B6DBFF",
"U 	c #B3D2FF",
"V 	c #A2C4F8",
"W 	c #9BBCF8",
"X 	c #91B0F6",
"Y 	c #89A6F5",
"Z 	c #8AA2FD",
"` 	c #5F8AF0",
" .	c #54879C",
"..	c #8B7F00",
"+.	c #3B6FA2",
"@.	c #6EA0DB",
"#.	c #A4C3FF",
"$.	c #93B2FE",
"%.	c #88A5FD",
"&.	c #7895F6",
"*.	c #386CC4",
"=.	c #586674",
"-.	c #F5FC73",
";.	c #FCE56A",
">.	c #754200",
",.	c #02233B",
"'.	c #1E5A90",
").	c #195287",
"!.	c #175189",
"~.	c #134681",
"{.	c #0F1715",
"].	c #C0710D",
"^.	c #DCA026",
"/.	c #DBC095",
"(.	c #E6C07B",
"_.	c #774500",
":.	c #854B0C",
"<.	c #C08330",
"[.	c #E2C692",
"}.	c #E5BF7B",
"|.	c #784700",
"1.	c #84ADDF",
"2.	c #5388BC",
"3.	c #89510C",
"4.	c #E1C694",
"5.	c #E3BC75",
"6.	c #7E4C01",
"7.	c #6F9CCF",
"8.	c #84AFDD",
"9.	c #4E85B8",
"0.	c #6DA1D9",
"a.	c #874F09",
"b.	c #C88C3C",
"c.	c #C39748",
"d.	c #B3700D",
"e.	c #3873A8",
"f.	c #4C83B7",
"g.	c #11578C",
"h.	c #004379",
"i.	c #844F0D",
"j.	c #925B19",
"k.	c #623901",
"l.	c #80A9DB",
"m.	c #1A5D93",
"n.	c #241400",
"      . + @ # $                 ",
"    % & * = - ; > ,             ",
"  ' ) ! ~ { ] ^ / ( _           ",
": < [ } | 1 2 3 4 5 6           ",
"7 8 9 0 a b c d e f g h         ",
"i j k l m n o p q r s t         ",
"u v w x y z A B C D E F         ",
"G H I J K L M N O P Q R         ",
"  S T U V W X Y Z `  ...        ",
"    +.@.#.$.%.&.*.=.-.;.>.      ",
"      ,.'.).!.~.{.].^./.(._.    ",
"                    :.<.[.}.|.  ",
"  1.2.                3.<.4.5.6.",
"7.8.9.0.                a.b.c.d.",
"e.f.g.h.                  i.j.k.",
"  l.m.                      n.  "};
